<?xml version="1.0" standalone="no"?>
<svg xmlns:xlink="http://www.w3.org/1999/xlink" id="wave" style="transform:rotate(180deg); transition: 0.3s" viewBox="0 0 1440 100" version="1.1" xmlns="http://www.w3.org/2000/svg"><defs><linearGradient id="sw-gradient-0" x1="0" x2="0" y1="1" y2="0"><stop stop-color="rgba(255, 249, 234, 1)" offset="0%"/><stop stop-color="rgba(255, 249, 234, 1)" offset="100%"/></linearGradient></defs><path style="transform:translate(0, 0px); opacity:1" fill="url(#sw-gradient-0)" d="M0,10L60,16.7C120,23,240,37,360,50C480,63,600,77,720,68.3C840,60,960,30,1080,26.7C1200,23,1320,47,1440,61.7C1560,77,1680,83,1800,73.3C1920,63,2040,37,2160,31.7C2280,27,2400,43,2520,56.7C2640,70,2760,80,2880,73.3C3000,67,3120,43,3240,33.3C3360,23,3480,27,3600,33.3C3720,40,3840,50,3960,56.7C4080,63,4200,67,4320,71.7C4440,77,4560,83,4680,85C4800,87,4920,83,5040,71.7C5160,60,5280,40,5400,31.7C5520,23,5640,27,5760,28.3C5880,30,6000,30,6120,33.3C6240,37,6360,43,6480,45C6600,47,6720,43,6840,43.3C6960,43,7080,47,7200,43.3C7320,40,7440,30,7560,31.7C7680,33,7800,47,7920,58.3C8040,70,8160,80,8280,78.3C8400,77,8520,63,8580,56.7L8640,50L8640,100L8580,100C8520,100,8400,100,8280,100C8160,100,8040,100,7920,100C7800,100,7680,100,7560,100C7440,100,7320,100,7200,100C7080,100,6960,100,6840,100C6720,100,6600,100,6480,100C6360,100,6240,100,6120,100C6000,100,5880,100,5760,100C5640,100,5520,100,5400,100C5280,100,5160,100,5040,100C4920,100,4800,100,4680,100C4560,100,4440,100,4320,100C4200,100,4080,100,3960,100C3840,100,3720,100,3600,100C3480,100,3360,100,3240,100C3120,100,3000,100,2880,100C2760,100,2640,100,2520,100C2400,100,2280,100,2160,100C2040,100,1920,100,1800,100C1680,100,1560,100,1440,100C1320,100,1200,100,1080,100C960,100,840,100,720,100C600,100,480,100,360,100C240,100,120,100,60,100L0,100Z"/></svg>